<svg width="278" height="28" viewBox="0 0 278 28" fill="none" xmlns="http://www.w3.org/2000/svg">
<path d="M20.0912 1.57066L13.0847 21.5059H7.03641L0 1.57066H5.41953L9.04254 13.6224L10.1205 17.5491L11.1684 13.6828L14.8513 1.57066H20.0912Z" fill="#2D2D2D"/>
<path d="M26.8434 21.808C24.7674 21.808 23.0906 21.3448 21.8131 20.4186C20.5555 19.4721 19.9168 18.1028 19.8968 16.3107C19.8968 15.6864 20.0066 15.032 20.2262 14.3474C20.4457 13.6627 20.845 13.0284 21.4239 12.4444C22.0027 11.8403 22.8112 11.347 23.8492 10.9644C23.0707 9.99784 22.5517 9.18231 22.2922 8.5178C22.0526 7.85329 21.9329 7.13844 21.9329 6.37325C21.9329 5.52751 22.1425 4.72204 22.5617 3.95685C23.0008 3.17152 23.6695 2.52715 24.5678 2.02373C25.4661 1.52032 26.6338 1.26861 28.071 1.26861C29.4084 1.26861 30.5063 1.49011 31.3647 1.93312C32.223 2.37612 32.8518 2.96009 33.251 3.685C33.6502 4.38979 33.8499 5.14491 33.8499 5.95038C33.8499 7.1183 33.5005 8.16541 32.8019 9.09169C32.1032 10.018 30.9854 10.7832 29.4484 11.3873C29.6679 11.6289 29.8975 11.8907 30.137 12.1726C30.3965 12.4545 30.666 12.7465 30.9455 13.0485C31.3247 13.4714 31.6741 13.8641 31.9934 14.2265C32.3328 14.589 32.6522 14.9213 32.9516 15.2233C33.1911 14.6997 33.3708 14.1158 33.4906 13.4714C33.6103 12.827 33.6602 12.0921 33.6403 11.2665L37.0537 11.3571C37.0537 12.5049 36.894 13.5922 36.5746 14.6192C36.2552 15.626 35.7761 16.5221 35.1374 17.3074C35.6963 17.7303 36.2153 18.0122 36.6944 18.1532C37.1934 18.274 37.7523 18.2941 38.3711 18.2136L37.922 21.808C37.2233 21.808 36.5846 21.7576 36.0057 21.657C35.4468 21.5764 34.8879 21.4052 34.3289 21.1435C33.79 20.8817 33.1911 20.489 32.5324 19.9655C31.8537 20.5494 31.0353 21.0025 30.0771 21.3247C29.139 21.6469 28.061 21.808 26.8434 21.808ZM26.2745 6.52427C26.2745 6.927 26.3643 7.32974 26.544 7.73247C26.7436 8.11507 27.1528 8.68896 27.7716 9.45415C28.5701 8.89033 29.109 8.37684 29.3885 7.9137C29.6879 7.45056 29.8376 6.91694 29.8376 6.31284C29.8376 5.78928 29.6779 5.38655 29.3585 5.10464C29.0392 4.80259 28.62 4.65156 28.101 4.65156C27.5221 4.65156 27.073 4.82272 26.7536 5.16505C26.4342 5.50737 26.2745 5.96044 26.2745 6.52427ZM24.2684 15.918C24.2684 16.7033 24.5678 17.3276 25.1666 17.7907C25.7854 18.2337 26.5739 18.4552 27.5321 18.4552C28.0511 18.4552 28.5301 18.4049 28.9693 18.3042C29.4284 18.2035 29.8576 18.0626 30.2568 17.8813C29.7378 17.3578 29.139 16.7436 28.4603 16.0388C27.9413 15.475 27.4522 14.9615 26.9931 14.4984C26.554 14.0151 26.1447 13.5721 25.7655 13.1694C25.1866 13.5922 24.7874 14.0151 24.5678 14.438C24.3682 14.8407 24.2684 15.3341 24.2684 15.918Z" fill="#2D2D2D"/>
<path d="M45.8412 1.57066V21.5059H40.6912V1.57066H45.8412Z" fill="#2D2D2D"/>
<path d="M81.6668 1.57066V21.5059H77.1156V12.3538L77.2653 6.22222H77.2054L72.3249 21.5059H68.1629L63.2823 6.22222H63.2224L63.3721 12.3538V21.5059H58.791V1.57066H66.1268L69.2408 11.7195L70.3487 15.9482H70.4086L71.5464 11.7497L74.6304 1.57066H81.6668Z" fill="#2D2D2D"/>
<path d="M92.7223 6.1014C94.2992 6.1014 95.6766 6.41352 96.8543 7.03776C98.052 7.66199 98.9802 8.55807 99.6389 9.726C100.318 10.8939 100.657 12.3035 100.657 13.9547C100.657 15.6059 100.318 17.0155 99.6389 18.1834C98.9802 19.3513 98.052 20.2474 96.8543 20.8716C95.6766 21.4959 94.2992 21.808 92.7223 21.808C91.1653 21.808 89.7879 21.4959 88.5902 20.8716C87.4125 20.2474 86.4843 19.3513 85.8056 18.1834C85.1469 17.0155 84.8175 15.6059 84.8175 13.9547C84.8175 12.3035 85.1469 10.8939 85.8056 9.726C86.4843 8.55807 87.4125 7.66199 88.5902 7.03776C89.7879 6.41352 91.1653 6.1014 92.7223 6.1014ZM92.7223 9.7562C91.844 9.7562 91.1553 10.0885 90.6562 10.753C90.1772 11.3973 89.9376 12.4646 89.9376 13.9547C89.9376 15.4247 90.1772 16.4919 90.6562 17.1564C91.1553 17.8209 91.844 18.1532 92.7223 18.1532C93.6205 18.1532 94.3092 17.8209 94.7883 17.1564C95.2873 16.4919 95.5368 15.4247 95.5368 13.9547C95.5368 12.4646 95.2873 11.3973 94.7883 10.753C94.3092 10.0885 93.6205 9.7562 92.7223 9.7562Z" fill="#2D2D2D"/>
<path d="M109.03 21.808C107.173 21.808 105.676 21.1233 104.538 19.754C103.421 18.3848 102.862 16.4718 102.862 14.0151C102.862 12.3236 103.121 10.8939 103.64 9.726C104.179 8.53794 104.918 7.64185 105.856 7.03776C106.814 6.41352 107.912 6.1014 109.15 6.1014C110.207 6.1014 111.106 6.36318 111.844 6.88673C112.603 7.41028 113.172 8.105 113.551 8.97087V0H118.641V21.5059H114.09L113.91 18.5458C113.491 19.5527 112.852 20.3481 111.994 20.932C111.156 21.516 110.168 21.808 109.03 21.808ZM110.796 18.0324C111.635 18.0324 112.303 17.68 112.802 16.9752C113.301 16.2704 113.551 15.2334 113.551 13.8641C113.551 12.5955 113.311 11.6188 112.832 10.9342C112.353 10.2294 111.685 9.87702 110.826 9.87702C109.948 9.87702 109.249 10.2093 108.73 10.8738C108.231 11.5182 107.982 12.5451 107.982 13.9547C107.982 15.3643 108.231 16.4013 108.73 17.0658C109.229 17.7102 109.918 18.0324 110.796 18.0324Z" fill="#2D2D2D"/>
<path d="M129.599 21.808C127.103 21.808 125.127 21.1233 123.67 19.754C122.233 18.3848 121.514 16.4516 121.514 13.9547C121.514 12.3035 121.844 10.8939 122.502 9.726C123.181 8.53794 124.099 7.64185 125.257 7.03776C126.435 6.41352 127.802 6.1014 129.359 6.1014C130.936 6.1014 132.273 6.41352 133.371 7.03776C134.489 7.64185 135.338 8.48759 135.916 9.57497C136.495 10.6422 136.785 11.8705 136.785 13.26C136.785 13.6426 136.765 14.0151 136.725 14.3776C136.705 14.7199 136.685 15.0119 136.665 15.2535H126.455C126.594 16.3006 126.934 17.0557 127.473 17.5189C128.012 17.9619 128.72 18.1834 129.599 18.1834C130.357 18.1834 130.956 18.0324 131.395 17.7303C131.854 17.4283 132.194 17.0054 132.413 16.4617L136.485 17.8209C136.206 18.6868 135.717 19.4218 135.018 20.0259C134.339 20.6099 133.521 21.0529 132.563 21.3549C131.625 21.657 130.637 21.808 129.599 21.808ZM129.359 9.69579C127.742 9.69579 126.784 10.6321 126.485 12.5049H131.964C131.744 10.6321 130.876 9.69579 129.359 9.69579Z" fill="#2D2D2D"/>
<path d="M144.663 0V16.3711C144.663 17.0356 144.772 17.5088 144.992 17.7907C145.212 18.0726 145.581 18.2136 146.1 18.2136C146.399 18.2136 146.649 18.1935 146.848 18.1532C147.048 18.1129 147.288 18.0525 147.567 17.972L147.238 21.0529C146.878 21.2744 146.409 21.4556 145.83 21.5965C145.251 21.7375 144.683 21.808 144.124 21.808C142.527 21.808 141.369 21.4355 140.65 20.6904C139.932 19.9453 139.572 18.7271 139.572 17.0356V0H144.663Z" fill="#2D2D2D"/>
<path d="M155.716 21.808C154.219 21.808 152.831 21.5663 151.554 21.0831C150.276 20.5796 149.208 19.8648 148.35 18.9385L150.745 16.0992C151.244 16.7436 151.903 17.2873 152.721 17.7303C153.56 18.1532 154.488 18.3646 155.506 18.3646C156.125 18.3646 156.634 18.274 157.033 18.0928C157.432 17.9115 157.632 17.6296 157.632 17.247C157.632 16.9853 157.532 16.7638 157.333 16.5825C157.133 16.4013 156.734 16.2503 156.135 16.1294L154.039 15.7066C152.163 15.324 150.825 14.7602 150.027 14.0151C149.248 13.2499 148.859 12.2531 148.859 11.0248C148.859 10.1992 149.108 9.41388 149.607 8.66882C150.107 7.92377 150.875 7.3096 151.913 6.82632C152.951 6.34304 154.278 6.1014 155.895 6.1014C158.989 6.1014 161.245 6.96728 162.662 8.69903L160.237 11.4779C159.758 10.8738 159.139 10.4006 158.381 10.0583C157.622 9.71593 156.863 9.54477 156.105 9.54477C154.648 9.54477 153.919 9.9173 153.919 10.6624C153.919 10.9241 154.039 11.1557 154.278 11.3571C154.538 11.5584 155.007 11.7195 155.686 11.8403L158.41 12.384C159.948 12.6861 161.055 13.2096 161.734 13.9547C162.413 14.6796 162.752 15.5656 162.752 16.6127C162.752 18.0827 162.163 19.3211 160.986 20.3279C159.828 21.3146 158.071 21.808 155.716 21.808Z" fill="#2D2D2D"/>
<path d="M171.581 21.5059L178.528 1.57066H184.696L191.613 21.5059H186.313L184.965 17.0054H178.139L176.761 21.5059H171.581ZM180.714 8.66882L179.217 13.4714H183.888L182.45 8.69903L181.582 5.55771H181.522L180.714 8.66882Z" fill="#2D2D2D"/>
<path d="M202.894 18.1532C204.63 18.1532 205.958 18.5257 206.876 19.2708C207.814 19.9957 208.283 21.0428 208.283 22.4121C208.283 24.3049 207.535 25.7044 206.037 26.6106C204.56 27.5369 202.564 28 200.049 28C197.334 28 195.378 27.6577 194.18 26.973C192.983 26.2884 192.384 25.3621 192.384 24.1942C192.384 23.5095 192.603 22.9256 193.043 22.4423C193.502 21.959 194.23 21.6268 195.228 21.4455C193.771 20.9018 193.043 19.8849 193.043 18.3948C193.043 17.69 193.252 17.0759 193.671 16.5523C194.091 16.0086 194.669 15.616 195.408 15.3743C193.811 14.4883 193.013 13.109 193.013 11.2362C193.013 9.60518 193.641 8.34664 194.899 7.46063C196.177 6.55448 197.963 6.1014 200.259 6.1014C201.416 6.1014 202.464 6.22222 203.403 6.46386C203.482 5.73894 203.682 5.06436 204.001 4.44013C204.341 3.81589 204.8 3.31248 205.379 2.92988C205.978 2.52715 206.706 2.32578 207.565 2.32578C207.624 2.32578 207.694 2.33585 207.774 2.35599C207.854 2.35599 207.944 2.35599 208.044 2.35599L208.463 5.79935C208.243 5.73894 208.004 5.70874 207.744 5.70874C207.046 5.70874 206.487 5.84969 206.067 6.13161C205.648 6.41352 205.369 6.77598 205.229 7.21899C206.726 8.105 207.475 9.44408 207.475 11.2362C207.475 12.8673 206.836 14.1259 205.558 15.0119C204.301 15.8979 202.534 16.3409 200.259 16.3409C199.221 16.3409 198.282 16.2503 197.444 16.069C196.785 16.2704 196.456 16.6228 196.456 17.1262C196.456 17.8109 197.015 18.1532 198.133 18.1532H202.894ZM200.259 9.03128C199.6 9.03128 199.061 9.22258 198.642 9.60518C198.243 9.98777 198.043 10.5315 198.043 11.2362C198.043 11.9209 198.243 12.4545 198.642 12.8371C199.061 13.2197 199.6 13.411 200.259 13.411C200.897 13.411 201.426 13.2197 201.846 12.8371C202.265 12.4545 202.474 11.9209 202.474 11.2362C202.474 10.5315 202.265 9.98777 201.846 9.60518C201.426 9.22258 200.897 9.03128 200.259 9.03128ZM200.079 24.6775C201.516 24.6775 202.584 24.5264 203.283 24.2244C204.001 23.9425 204.361 23.58 204.361 23.137C204.361 22.8349 204.241 22.5933 204.001 22.4121C203.782 22.251 203.393 22.1704 202.834 22.1704H197.474C197.095 22.1704 196.785 22.2711 196.546 22.4725C196.326 22.6739 196.216 22.9256 196.216 23.2276C196.216 23.6908 196.556 24.0432 197.234 24.2848C197.913 24.5466 198.861 24.6775 200.079 24.6775Z" fill="#2D2D2D"/>
<path d="M217.612 21.808C215.117 21.808 213.141 21.1233 211.684 19.754C210.246 18.3848 209.528 16.4516 209.528 13.9547C209.528 12.3035 209.857 10.8939 210.516 9.726C211.195 8.53794 212.113 7.64185 213.271 7.03776C214.448 6.41352 215.816 6.1014 217.373 6.1014C218.95 6.1014 220.287 6.41352 221.385 7.03776C222.503 7.64185 223.351 8.48759 223.93 9.57497C224.509 10.6422 224.798 11.8705 224.798 13.26C224.798 13.6426 224.778 14.0151 224.738 14.3776C224.719 14.7199 224.699 15.0119 224.679 15.2535H214.468C214.608 16.3006 214.947 17.0557 215.486 17.5189C216.025 17.9619 216.734 18.1834 217.612 18.1834C218.371 18.1834 218.97 18.0324 219.409 17.7303C219.868 17.4283 220.207 17.0054 220.427 16.4617L224.499 17.8209C224.219 18.6868 223.73 19.4218 223.032 20.0259C222.353 20.6099 221.535 21.0529 220.577 21.3549C219.638 21.657 218.65 21.808 217.612 21.808ZM217.373 9.69579C215.756 9.69579 214.798 10.6321 214.498 12.5049H219.978C219.758 10.6321 218.89 9.69579 217.373 9.69579Z" fill="#2D2D2D"/>
<path d="M227.646 21.5059V6.40345H232.197L232.347 9.45415C232.806 8.34664 233.475 7.51097 234.353 6.94714C235.231 6.38331 236.269 6.1014 237.467 6.1014C239.004 6.1014 240.252 6.55448 241.21 7.46063C242.168 8.36677 242.647 9.69579 242.647 11.4477V21.5059H237.557V12.8069C237.557 11.7598 237.357 11.0349 236.958 10.6321C236.559 10.2294 236.05 10.028 235.431 10.028C234.692 10.028 234.054 10.2898 233.515 10.8134C232.996 11.3369 232.736 12.233 232.736 13.5016V21.5059H227.646Z" fill="#2D2D2D"/>
<path d="M253.31 6.1014C254.827 6.1014 256.085 6.3229 257.083 6.76591C258.101 7.20892 258.889 7.78281 259.448 8.48759C260.007 9.19238 260.366 9.95757 260.526 10.7832L255.825 12.3538C255.705 11.488 255.456 10.8436 255.076 10.4207C254.697 9.97771 254.158 9.7562 253.46 9.7562C252.501 9.7562 251.773 10.0985 251.274 10.7832C250.795 11.4678 250.555 12.5451 250.555 14.0151C250.555 15.5052 250.815 16.5725 251.334 17.2168C251.873 17.8411 252.591 18.1532 253.49 18.1532C254.907 18.1532 255.735 17.3376 255.975 15.7066L260.556 17.1866C260.336 18.4955 259.608 19.593 258.37 20.479C257.152 21.365 255.536 21.808 253.519 21.808C251.064 21.808 249.098 21.1233 247.621 19.754C246.164 18.3646 245.435 16.4315 245.435 13.9547C245.435 12.3035 245.764 10.8939 246.423 9.726C247.102 8.55807 248.03 7.66199 249.208 7.03776C250.386 6.41352 251.753 6.1014 253.31 6.1014Z" fill="#2D2D2D"/>
<path d="M278 6.40345L272.551 21.5059C271.992 23.0967 271.383 24.3653 270.724 25.3118C270.065 26.2783 269.287 26.963 268.389 27.3657C267.49 27.7886 266.412 28 265.155 28C264.296 28 263.518 27.9094 262.819 27.7282C262.141 27.5469 261.542 27.2952 261.023 26.973L262.041 23.4995C262.4 23.7612 262.779 23.9425 263.179 24.0431C263.578 24.164 264.087 24.2244 264.706 24.2244C265.285 24.2244 265.754 24.1237 266.113 23.9223C266.492 23.7411 266.792 23.3585 267.011 22.7745L267.4 21.8382L265.664 17.7303L261.172 6.40345H266.772L269.077 15.0119L269.796 18.2136L270.634 14.891L272.94 6.40345H278Z" fill="#2D2D2D"/>
</svg>
